<svg width="38" height="38" viewBox="0 0 38 38" fill="none" xmlns="http://www.w3.org/2000/svg">
<ellipse cx="19.0013" cy="25.8763" rx="2.77083" ry="1.73177" fill="#E81C24"/>
<ellipse cx="24.5417" cy="20.1215" rx="1.97917" ry="2.30903" fill="#E81C24"/>
<ellipse cx="13.4596" cy="20.1215" rx="1.97917" ry="2.30903" fill="#E81C24"/>
<path d="M30.0846 14.6445C30.0846 14.6445 30.0846 17.8112 30.0846 19.3945C30.0846 25.7279 27.7096 32.0612 19.0013 32.0612C10.293 32.0612 7.91797 25.7279 7.91797 19.3945C7.91797 19.3945 7.91797 14.6445 7.91797 14.6445" stroke="#E81C24" stroke-width="1.6" stroke-linecap="round" stroke-linejoin="round"/>
<path d="M30.0846 24.1452C30.0846 24.1452 34.8346 25.7285 34.8346 17.8118C34.8346 11.4785 30.0846 6.72852 19.0013 6.72852C7.91797 6.72852 3.16797 10.6868 3.16797 17.8118C3.16797 24.9368 7.91797 24.1452 7.91797 24.1452" stroke="#E81C24" stroke-width="1.6"/>
</svg>
